<svg width="64" height="64" viewBox="0 0 64 64" fill="none" xmlns="http://www.w3.org/2000/svg">
<mask id="mask0_222_530" style="mask-type:alpha" maskUnits="userSpaceOnUse" x="0" y="0" width="64" height="64">
<rect width="64" height="64" fill="#D9D9D9"/>
</mask>
<g mask="url(#mask0_222_530)">
<path d="M23.2 42.3332L47.7333 35.5998C48.4889 35.3776 49.0444 35.0221 49.4 34.5332C49.7555 34.0443 49.8222 33.4221 49.6 32.6665C49.3778 31.9109 48.9778 31.3887 48.4 31.0998C47.8222 30.8109 47.1823 30.7583 46.4802 30.942L39.6 32.7332L28.5333 21.9332L25.0666 22.7332L31.9333 34.7998L24.5333 36.8665L21.0666 33.9998L19.1333 34.6665L23.2 42.3332ZM54.6666 53.3332H9.33331C8.23331 53.3332 7.29165 52.9415 6.50831 52.1582C5.72498 51.3748 5.33331 50.4332 5.33331 49.3332V39.1332C6.97776 38.7776 8.34442 37.9443 9.43331 36.6332C10.5222 35.3221 11.0666 33.7776 11.0666 31.9998C11.0666 30.2221 10.5222 28.6665 9.43331 27.3332C8.34442 25.9998 6.97776 25.1776 5.33331 24.8665V14.6665C5.33331 13.5665 5.72498 12.6248 6.50831 11.8415C7.29165 11.0582 8.23331 10.6665 9.33331 10.6665H54.6666C55.7666 10.6665 56.7083 11.0582 57.4916 11.8415C58.275 12.6248 58.6666 13.5665 58.6666 14.6665V49.3332C58.6666 50.4332 58.275 51.3748 57.4916 52.1582C56.7083 52.9415 55.7666 53.3332 54.6666 53.3332ZM54.6666 49.3332V14.6665H9.33331V21.9332C11.0666 23.0887 12.4555 24.5332 13.5 26.2665C14.5444 27.9998 15.0666 29.9109 15.0666 31.9998C15.0666 34.0887 14.5444 35.9998 13.5 37.7332C12.4555 39.4665 11.0666 40.911 9.33331 42.0665V49.3332H54.6666Z" fill="#F75603"/>
</g>
</svg>
