<svg width="64" height="64" viewBox="0 0 64 64" fill="none" xmlns="http://www.w3.org/2000/svg">
<mask id="mask0_222_482" style="mask-type:alpha" maskUnits="userSpaceOnUse" x="0" y="0" width="64" height="64">
<rect width="64" height="64" fill="#D9D9D9"/>
</mask>
<g mask="url(#mask0_222_482)">
<path d="M16.0666 58.6668L19.5333 50.7335C18.7777 50.2002 18.1 49.6779 17.5 49.1668C16.9 48.6557 16.2888 48.0891 15.6666 47.4668C15.3111 47.6446 14.9222 47.7779 14.5 47.8668C14.0777 47.9557 13.6888 48.0002 13.3333 48.0002C11.9111 48.0002 10.7 47.5002 9.69995 46.5002C8.69995 45.5002 8.19995 44.289 8.19995 42.8668C8.19995 41.9779 8.41106 41.1446 8.83328 40.3668C9.25551 39.5891 9.77773 39.0224 10.4 38.6668C10.0888 37.5557 9.8444 36.4446 9.66662 35.3335C9.48884 34.2224 9.39995 33.0891 9.39995 31.9335C9.39995 30.7335 9.47773 29.5891 9.63328 28.5002C9.78884 27.4113 10.0444 26.3113 10.4 25.2002C9.77773 24.7557 9.25551 24.1668 8.83328 23.4335C8.41106 22.7002 8.19995 21.8891 8.19995 21.0002C8.19995 19.5779 8.69995 18.3668 9.69995 17.3668C10.7 16.3668 11.9111 15.8668 13.3333 15.8668C13.6888 15.8668 14.0666 15.9113 14.4666 16.0002C14.8666 16.0891 15.2444 16.2224 15.6 16.4002C17.1555 14.8002 18.8555 13.4668 20.7 12.4002C22.5444 11.3335 24.6 10.5113 26.8666 9.9335C27.0888 8.51127 27.6777 7.38905 28.6333 6.56683C29.5888 5.74461 30.7111 5.3335 32 5.3335C33.2888 5.3335 34.4222 5.75572 35.4 6.60016C36.3777 7.44461 36.9555 8.55572 37.1333 9.9335C39.4 10.5113 41.5333 11.2779 43.5333 12.2335C45.5333 13.1891 47.2888 14.5113 48.8 16.2002C49.1111 16.1113 49.4222 16.0335 49.7333 15.9668C50.0444 15.9002 50.3555 15.8668 50.6666 15.8668C52.0888 15.8668 53.3 16.3668 54.3 17.3668C55.3 18.3668 55.8 19.5779 55.8 21.0002C55.8 21.9779 55.5888 22.8224 55.1666 23.5335C54.7444 24.2446 54.2222 24.8002 53.6 25.2002C53.9555 26.3557 54.2111 27.4668 54.3666 28.5335C54.5222 29.6002 54.6 30.7335 54.6 31.9335C54.6 33.0891 54.5222 34.2113 54.3666 35.3002C54.2111 36.389 53.9555 37.4891 53.6 38.6002C54.3555 39.0891 54.9111 39.7335 55.2666 40.5335C55.6222 41.3335 55.8 42.1113 55.8 42.8668C55.8 44.289 55.3 45.5002 54.3 46.5002C53.3 47.5002 52.0888 48.0002 50.6666 48.0002C50.3111 48.0002 49.9222 47.9557 49.5 47.8668C49.0777 47.7779 48.7111 47.6446 48.4 47.4668C47.8222 48.0891 47.2222 48.6668 46.6 49.2002C45.9777 49.7335 45.3111 50.2446 44.6 50.7335L48 58.6668H44.2L41.4 52.5335C40.6444 52.8002 39.9333 53.0446 39.2666 53.2668C38.6 53.489 37.8888 53.7113 37.1333 53.9335C36.9111 55.4002 36.3222 56.5335 35.3666 57.3335C34.4111 58.1335 33.2888 58.5335 32 58.5335C30.7111 58.5335 29.5888 58.1335 28.6333 57.3335C27.6777 56.5335 27.0888 55.4002 26.8666 53.9335C26.1111 53.7113 25.3888 53.489 24.7 53.2668C24.0111 53.0446 23.3555 52.7779 22.7333 52.4668L19.8 58.6668H16.0666ZM21 47.3335L25.7333 37.0002C25.1111 36.289 24.6444 35.5224 24.3333 34.7002C24.0222 33.8779 23.8666 32.9779 23.8666 32.0002C23.8666 29.7779 24.7 27.8668 26.3666 26.2668C28.0333 24.6668 29.9777 23.8668 32.2 23.8668C34.4222 23.8668 36.3 24.6668 37.8333 26.2668C39.3666 27.8668 40.1333 29.7779 40.1333 32.0002C40.1333 32.9779 39.9888 33.8779 39.7 34.7002C39.4111 35.5224 38.9333 36.289 38.2666 37.0002L43 47.3335C43.4888 46.9779 43.9888 46.5891 44.5 46.1668C45.0111 45.7446 45.4888 45.2891 45.9333 44.8002C45.8444 44.5335 45.7555 44.2335 45.6666 43.9002C45.5777 43.5668 45.5333 43.2224 45.5333 42.8668C45.5333 41.6668 45.9333 40.5779 46.7333 39.6002C47.5333 38.6224 48.6444 38.0002 50.0666 37.7335C50.3777 36.8446 50.6111 35.9113 50.7666 34.9335C50.9222 33.9557 51 32.9557 51 31.9335C51 30.8668 50.9222 29.8557 50.7666 28.9002C50.6111 27.9446 50.4 27.0224 50.1333 26.1335C48.8 25.9557 47.7 25.3779 46.8333 24.4002C45.9666 23.4224 45.5333 22.2891 45.5333 21.0002C45.5333 20.6002 45.5666 20.2446 45.6333 19.9335C45.7 19.6224 45.8 19.2891 45.9333 18.9335C44.5111 17.5557 43.0222 16.4224 41.4666 15.5335C39.9111 14.6446 38.1555 13.9335 36.2 13.4002C35.8444 13.9779 35.3 14.4891 34.5666 14.9335C33.8333 15.3779 32.9777 15.6002 32 15.6002C31.0222 15.6002 30.1777 15.3779 29.4666 14.9335C28.7555 14.4891 28.2 13.9779 27.8 13.4002C25.8444 13.9335 24.0555 14.6446 22.4333 15.5335C20.8111 16.4224 19.3555 17.6002 18.0666 19.0668C18.2444 19.4224 18.3555 19.7446 18.4 20.0335C18.4444 20.3224 18.4666 20.6446 18.4666 21.0002C18.4666 22.4224 18.0111 23.5891 17.1 24.5002C16.1888 25.4113 15.1333 25.9557 13.9333 26.1335C13.6222 27.0224 13.3888 27.9446 13.2333 28.9002C13.0777 29.8557 13 30.8668 13 31.9335C13 32.9557 13.0777 33.9557 13.2333 34.9335C13.3888 35.9113 13.6222 36.8446 13.9333 37.7335C15.3555 38.0002 16.4666 38.6224 17.2666 39.6002C18.0666 40.5779 18.4666 41.6668 18.4666 42.8668C18.4666 43.2668 18.4333 43.6224 18.3666 43.9335C18.3 44.2446 18.2222 44.5113 18.1333 44.7335C18.5777 45.2224 19.0333 45.6779 19.5 46.1002C19.9666 46.5224 20.4666 46.9335 21 47.3335ZM24 49.1335C24.5333 49.3557 25.1222 49.5891 25.7666 49.8335C26.4111 50.0779 27.0888 50.2891 27.8 50.4668C28.2888 49.8446 28.8666 49.3224 29.5333 48.9002C30.2 48.4779 31.0222 48.2668 32 48.2668C32.9777 48.2668 33.8333 48.4779 34.5666 48.9002C35.3 49.3224 35.8444 49.8446 36.2 50.4668C36.9555 50.2891 37.6333 50.0891 38.2333 49.8668C38.8333 49.6446 39.3777 49.4224 39.8666 49.2002L35.5333 39.1335C35 39.4891 34.4222 39.7446 33.8 39.9002C33.1777 40.0557 32.5555 40.1335 31.9333 40.1335C31.3111 40.1335 30.6888 40.0446 30.0666 39.8668C29.4444 39.689 28.8666 39.4224 28.3333 39.0668L24 49.1335ZM32 36.1335C33.1555 36.1335 34.1333 35.7335 34.9333 34.9335C35.7333 34.1335 36.1333 33.1557 36.1333 32.0002C36.1333 30.8446 35.7333 29.8668 34.9333 29.0668C34.1333 28.2668 33.1555 27.8668 32 27.8668C30.8444 27.8668 29.8666 28.2668 29.0666 29.0668C28.2666 29.8668 27.8666 30.8446 27.8666 32.0002C27.8666 33.1557 28.2666 34.1335 29.0666 34.9335C29.8666 35.7335 30.8444 36.1335 32 36.1335Z" fill="#F75603"/>
</g>
</svg>
