<svg width="64" height="64" viewBox="0 0 64 64" fill="none" xmlns="http://www.w3.org/2000/svg">
<mask id="mask0_222_602" style="mask-type:alpha" maskUnits="userSpaceOnUse" x="0" y="0" width="64" height="64">
<rect width="64" height="64" fill="#D9D9D9"/>
</mask>
<g mask="url(#mask0_222_602)">
<path d="M45.3333 42C43.1111 42 41.2222 41.2222 39.6667 39.6667C38.1111 38.1111 37.3333 36.2222 37.3333 34C37.3333 31.7778 38.1111 29.8889 39.6667 28.3333C41.2222 26.7778 43.1111 26 45.3333 26C47.5556 26 49.4444 26.7778 51 28.3333C52.5556 29.8889 53.3333 31.7778 53.3333 34C53.3333 36.2222 52.5556 38.1111 51 39.6667C49.4444 41.2222 47.5556 42 45.3333 42ZM45.3333 38C46.4667 38 47.4167 37.6167 48.1833 36.85C48.95 36.0833 49.3333 35.1333 49.3333 34C49.3333 32.8667 48.95 31.9167 48.1833 31.15C47.4167 30.3833 46.4667 30 45.3333 30C44.2 30 43.25 30.3833 42.4833 31.15C41.7167 31.9167 41.3333 32.8667 41.3333 34C41.3333 35.1333 41.7167 36.0833 42.4833 36.85C43.25 37.6167 44.2 38 45.3333 38ZM29.3333 60.6667V52.9333C29.3333 52 29.5556 51.1222 30 50.3C30.4444 49.4778 31.0667 48.8222 31.8667 48.3333C33.1111 47.5778 34.4 46.9222 35.7333 46.3667C37.0667 45.8111 38.4444 45.3556 39.8667 45L45.3333 52.0667L50.8 45C52.2222 45.3556 53.5889 45.8111 54.9 46.3667C56.2111 46.9222 57.4889 47.5778 58.7333 48.3333C59.5333 48.8222 60.1667 49.4778 60.6333 50.3C61.1 51.1222 61.3333 52 61.3333 52.9333V60.6667H29.3333ZM33.3333 56.6667H43.8L38.3333 49.6C37.4444 49.9556 36.5778 50.3444 35.7333 50.7667C34.8889 51.1889 34.0889 51.6444 33.3333 52.1333V56.6667ZM46.8667 56.6667H57.3333V52.1333C56.5778 51.6444 55.7889 51.1889 54.9667 50.7667C54.1444 50.3444 53.2889 49.9556 52.4 49.6L46.8667 56.6667ZM12 56C10.9 56 9.95833 55.6083 9.175 54.825C8.39167 54.0417 8 53.1 8 52V12C8 10.9 8.39167 9.95833 9.175 9.175C9.95833 8.39167 10.9 8 12 8H52C53.1 8 54.0417 8.39167 54.825 9.175C55.6083 9.95833 56 10.9 56 12V28.4667C55.5111 27.5778 54.9333 26.7556 54.2667 26C53.6 25.2444 52.8444 24.5778 52 24V12H12V52H25.3333V56H12ZM18.6667 22.6667H41.4C42.0222 22.4444 42.6631 22.2778 43.3227 22.1667C43.9823 22.0556 44.6525 22 45.3333 22V18.6667H18.6667V22.6667ZM18.6667 34H33.3333C33.3333 33.3333 33.3889 32.6556 33.5 31.9667C33.6111 31.2778 33.7778 30.6222 34 30H18.6667V34ZM18.6667 45.3333H29.2C29.9556 44.7556 30.7556 44.2778 31.6 43.9C32.4444 43.5222 33.3111 43.1556 34.2 42.8V41.3333H18.6667V45.3333ZM12 52V12V24V22V52Z" fill="#F75603"/>
</g>
</svg>
