<svg width="64" height="64" viewBox="0 0 64 64" fill="none" xmlns="http://www.w3.org/2000/svg">
<mask id="mask0_222_460" style="mask-type:alpha" maskUnits="userSpaceOnUse" x="0" y="0" width="64" height="64">
<rect width="64" height="64" fill="#D9D9D9"/>
</mask>
<g mask="url(#mask0_222_460)">
<path d="M26.6666 58.6666V54.6666H61.3333V58.6666H26.6666ZM29.3333 50.6666C29.3333 47.0666 30.4666 43.9222 32.7333 41.2333C35 38.5444 37.8666 36.8944 41.3333 36.2833V34.6464C41.3333 33.9043 41.5889 33.2777 42.1 32.7666C42.6111 32.2555 43.2444 32 44 32C44.7555 32 45.3888 32.2555 45.9 32.7666C46.4111 33.2777 46.6666 33.9111 46.6666 34.6666V36.2906C50.0888 36.8968 52.9444 38.5444 55.2333 41.2333C57.5222 43.9222 58.6666 47.0666 58.6666 50.6666H29.3333ZM34.0666 46.6666H53.8666C53.0666 44.7111 51.7777 43.1111 50 41.8666C48.2222 40.6222 46.2269 40 44.014 40C41.738 40 39.7111 40.6222 37.9333 41.8666C36.1555 43.1111 34.8666 44.7111 34.0666 46.6666ZM2.66663 34.5333V8.26663H17V12.0666L37.7333 6.1333L58.6666 12.5333V15.6666C58.6666 17.3333 58 18.75 56.6666 19.9166C55.3333 21.0833 53.8222 21.6666 52.1333 21.6666H44.5333C44.5333 22.5111 44.0111 23.7222 42.9666 25.3C41.9222 26.8777 41.0222 27.8222 40.2666 28.1333L23.2666 34.5333H2.66663ZM6.66663 30.5333H12.9333V12.2666H6.66663V30.5333ZM17 30.5333H22.6L38.9333 24.3333C39.3333 24.2 39.6555 23.8222 39.9 23.2C40.1444 22.5777 40.2666 22.0666 40.2666 21.6666H35.1333L27.4666 24.2L26 20.3333L34.6 17.6666H52.1333C52.7555 17.6666 53.3111 17.45 53.8 17.0166C54.2889 16.5833 54.5333 16.0666 54.5333 15.4666L37.4666 10.2666L17 16.2666V30.5333Z" fill="#F75603"/>
</g>
</svg>
