<svg width="64" height="64" viewBox="0 0 64 64" fill="none" xmlns="http://www.w3.org/2000/svg">
<mask id="mask0_222_548" style="mask-type:alpha" maskUnits="userSpaceOnUse" x="0" y="0" width="64" height="64">
<rect width="64" height="64" fill="#D9D9D9"/>
</mask>
<g mask="url(#mask0_222_548)">
<path d="M51.2 55.9998L34.4666 39.2664L38.2666 35.4664L55 52.1998L51.2 55.9998ZM12.4666 55.9998L8.66663 52.1998L28 32.8664L20.8666 25.7331L19.3333 27.2664L16.4 24.3331V29.9998L14.8 31.5998L6.66663 23.4664L8.26663 21.8664H14L10.8 18.6664L19.5333 9.93311C20.2888 9.17755 21.1111 8.66644 22 8.39977C22.8888 8.13311 23.8666 7.99977 24.9333 7.99977C26 7.99977 26.9777 8.18866 27.8666 8.56644C28.7555 8.94422 29.5777 9.51088 30.3333 10.2664L23.2 17.3998L26.4 20.5998L24.8 22.1998L31.7333 29.1331L39.8666 20.9998C39.5111 20.422 39.2333 19.7553 39.0333 18.9998C38.8333 18.2442 38.7333 17.4442 38.7333 16.5998C38.7333 14.2442 39.5888 12.2109 41.3 10.4998C43.0111 8.78866 45.0444 7.93311 47.4 7.93311C48.0666 7.93311 48.6333 7.99977 49.1 8.13311C49.5666 8.26644 49.9555 8.44422 50.2666 8.66644L44.6 14.3331L49.6 19.3331L55.2666 13.6664C55.4888 14.022 55.6777 14.4553 55.8333 14.9664C55.9888 15.4776 56.0666 16.0664 56.0666 16.7331C56.0666 19.0887 55.2111 21.122 53.5 22.8331C51.7888 24.5442 49.7555 25.3998 47.4 25.3998C46.6 25.3998 45.9111 25.3442 45.3333 25.2331C44.7555 25.122 44.2222 24.9553 43.7333 24.7331L12.4666 55.9998Z" fill="#F75603"/>
</g>
</svg>
