<svg width="64" height="64" viewBox="0 0 64 64" fill="none" xmlns="http://www.w3.org/2000/svg">
<mask id="mask0_222_443" style="mask-type:alpha" maskUnits="userSpaceOnUse" x="0" y="0" width="64" height="64">
<rect width="64" height="64" fill="#D9D9D9"/>
</mask>
<g mask="url(#mask0_222_443)">
<path d="M5.33331 56V8H31.3333V19H58.6666V56H5.33331ZM9.33331 52H16.3333V45H9.33331V52ZM9.33331 41H16.3333V34H9.33331V41ZM9.33331 30H16.3333V23H9.33331V30ZM9.33331 19H16.3333V12H9.33331V19ZM20.3333 52H27.3333V45H20.3333V52ZM20.3333 41H27.3333V34H20.3333V41ZM20.3333 30H27.3333V23H20.3333V30ZM20.3333 19H27.3333V12H20.3333V19ZM31.3333 52H54.6666V23H31.3333V30H36.6666V34H31.3333V41H36.6666V45H31.3333V52ZM43.6666 34V30H47.6666V34H43.6666ZM43.6666 45V41H47.6666V45H43.6666Z" fill="#F75603"/>
</g>
</svg>
