<svg width="64" height="64" viewBox="0 0 64 64" fill="none" xmlns="http://www.w3.org/2000/svg">
<mask id="mask0_222_536" style="mask-type:alpha" maskUnits="userSpaceOnUse" x="0" y="0" width="64" height="64">
<rect width="64" height="64" fill="#D9D9D9"/>
</mask>
<g mask="url(#mask0_222_536)">
<path d="M14.9412 53.2665C12.7581 53.2665 10.9 52.5017 9.36663 50.972C7.83329 49.4424 7.06663 47.585 7.06663 45.3998H2.66663V14.6665C2.66663 13.5998 3.06663 12.6665 3.86663 11.8665C4.66663 11.0665 5.59996 10.6665 6.66663 10.6665H45.2666V21.7998H52.2666L61.3333 33.8665V45.3998H56.6C56.6 47.585 55.8359 49.4424 54.3078 50.972C52.7797 52.5017 50.9241 53.2665 48.7412 53.2665C46.5581 53.2665 44.7 52.5017 43.1666 50.972C41.6333 49.4424 40.8666 47.585 40.8666 45.3998H22.8C22.8 47.5776 22.0359 49.4332 20.5078 50.9665C18.9797 52.4998 17.1241 53.2665 14.9412 53.2665ZM14.9333 49.2665C16 49.2665 16.9111 48.8887 17.6666 48.1332C18.4222 47.3776 18.8 46.4665 18.8 45.3998C18.8 44.3332 18.4222 43.4221 17.6666 42.6665C16.9111 41.9109 16 41.5332 14.9333 41.5332C13.8666 41.5332 12.9555 41.9109 12.2 42.6665C11.4444 43.4221 11.0666 44.3332 11.0666 45.3998C11.0666 46.4665 11.4444 47.3776 12.2 48.1332C12.9555 48.8887 13.8666 49.2665 14.9333 49.2665ZM6.66663 41.3998H8.13329C8.88885 40.1998 9.84531 39.2443 11.0027 38.5332C12.1601 37.8221 13.449 37.4665 14.8694 37.4665C16.2898 37.4665 17.5888 37.8332 18.7666 38.5665C19.9444 39.2998 20.9111 40.2443 21.6666 41.3998H41.2666V14.6665H6.66663V41.3998ZM48.7333 49.2665C49.8 49.2665 50.7111 48.8887 51.4666 48.1332C52.2222 47.3776 52.6 46.4665 52.6 45.3998C52.6 44.3332 52.2222 43.4221 51.4666 42.6665C50.7111 41.9109 49.8 41.5332 48.7333 41.5332C47.6666 41.5332 46.7555 41.9109 46 42.6665C45.2444 43.4221 44.8666 44.3332 44.8666 45.3998C44.8666 46.4665 45.2444 47.3776 46 48.1332C46.7555 48.8887 47.6666 49.2665 48.7333 49.2665ZM45.2666 35.6665H57.6666L50.2666 25.7998H45.2666V35.6665Z" fill="#F75603"/>
</g>
</svg>
