<svg width="64" height="64" viewBox="0 0 64 64" fill="none" xmlns="http://www.w3.org/2000/svg">
<mask id="mask0_222_596" style="mask-type:alpha" maskUnits="userSpaceOnUse" x="0" y="0" width="64" height="64">
<rect width="64" height="64" fill="#D9D9D9"/>
</mask>
<g mask="url(#mask0_222_596)">
<path d="M17.4 53.3332C16.2444 53.3332 15.2889 52.9554 14.5333 52.1998C13.7778 51.4443 13.4 50.4887 13.4 49.3332C13.4 48.5332 13.6 47.7665 14 47.0332C14.4 46.2998 14.9778 45.7776 15.7333 45.4665L27.2 40.9332V31.7332C24.2667 35.3332 21.2889 38.0443 18.2667 39.8665C15.2444 41.6887 11.8222 42.5998 8 42.5998V38.5998C11.0222 38.5998 13.7778 37.8998 16.2667 36.4998C18.7556 35.0998 21 33.1332 23 30.5998L26.8667 26.2665C27.3111 25.7332 27.8333 25.2887 28.4333 24.9332C29.0333 24.5776 29.6889 24.3998 30.4 24.3998H33.6C34.3111 24.3998 34.9778 24.5776 35.6 24.9332C36.2222 25.2887 36.7556 25.7332 37.2 26.2665L41.0667 30.5998C43.2 33.0443 45.4667 34.9887 47.8667 36.4332C50.2667 37.8776 52.9778 38.5998 56 38.5998V42.5998C52.2222 42.5998 48.8111 41.6887 45.7667 39.8665C42.7222 38.0443 39.7333 35.3332 36.8 31.7332V40.9332L48.2667 45.4665C49.0222 45.7776 49.6 46.2998 50 47.0332C50.4 47.7665 50.6 48.5332 50.6 49.3332C50.6 50.4887 50.2222 51.4443 49.4667 52.1998C48.7111 52.9554 47.7556 53.3332 46.6 53.3332H26.4V52.5998C26.4 51.4443 26.7556 50.5109 27.4667 49.7998C28.1778 49.0887 29.1111 48.7332 30.2667 48.7332H39.1333C39.4889 48.7332 39.8 48.5998 40.0667 48.3332C40.3333 48.0665 40.4667 47.7554 40.4667 47.3998C40.4667 47.0443 40.3333 46.7332 40.0667 46.4665C39.8 46.1998 39.4889 46.0665 39.1333 46.0665H30.2667C28.3111 46.0665 26.7556 46.6665 25.6 47.8665C24.4444 49.0665 23.8667 50.6443 23.8667 52.5998V53.3332H17.4ZM32 20.3998C30.6667 20.3998 29.5222 19.9221 28.5667 18.9665C27.6111 18.0109 27.1333 16.8665 27.1333 15.5332C27.1333 14.1998 27.6111 13.0554 28.5667 12.0998C29.5222 11.1443 30.6667 10.6665 32 10.6665C33.3333 10.6665 34.4778 11.1443 35.4333 12.0998C36.3889 13.0554 36.8667 14.1998 36.8667 15.5332C36.8667 16.8665 36.3889 18.0109 35.4333 18.9665C34.4778 19.9221 33.3333 20.3998 32 20.3998Z" fill="#F75603"/>
</g>
</svg>
