<svg width="64" height="64" viewBox="0 0 64 64" fill="none" xmlns="http://www.w3.org/2000/svg">
<mask id="mask0_222_411" style="mask-type:alpha" maskUnits="userSpaceOnUse" x="0" y="0" width="64" height="64">
<rect width="64" height="64" fill="#D9D9D9"/>
</mask>
<g mask="url(#mask0_222_411)">
<path d="M32 58.6661C28.8 58.3105 25.6111 57.3883 22.4333 55.8994C19.2555 54.4105 16.4 52.3439 13.8666 49.6994C11.3333 47.055 9.27776 43.7883 7.69998 39.8994C6.1222 36.0105 5.33331 31.4889 5.33331 26.3344V23.7994H7.86665C10.2222 23.7994 12.7333 24.255 15.4 25.1661C18.0666 26.0772 20.4222 27.2439 22.4666 28.6661C22.8222 24.6661 23.8889 20.5439 25.6666 16.2994C27.4444 12.055 29.5555 8.42164 32 5.39941C34.4444 8.42164 36.5555 12.055 38.3333 16.2994C40.1111 20.5439 41.1778 24.6661 41.5333 28.6661C43.5778 27.3327 45.9333 26.1883 48.6 25.2327C51.2666 24.2772 53.7778 23.7994 56.1333 23.7994H58.6666V26.3344C58.6666 31.4889 57.8778 36.0105 56.3 39.8994C54.7222 43.7883 52.6666 47.055 50.1333 49.6994C47.6 52.3439 44.7444 54.4105 41.5667 55.8994C38.3889 57.3883 35.2 58.3105 32 58.6661ZM32.5333 54.5994C32.0444 46.3327 29.6579 40.062 25.3738 35.7871C21.0896 31.5123 15.765 28.8719 9.39998 27.8661C9.97776 36.4439 12.4778 42.8439 16.9 47.0661C21.3222 51.2883 26.5333 53.7994 32.5333 54.5994ZM31.9333 38.2661C32.5555 37.1105 33.4111 35.8661 34.5 34.5327C35.5889 33.1994 36.6444 32.0883 37.6666 31.1994C37.8889 28.1772 37.4444 25.1105 36.3333 21.9994C35.2222 18.8883 33.7778 15.6661 32 12.3327C30.2222 15.6661 28.7778 18.8883 27.6666 21.9994C26.5555 25.1105 26.1111 28.1772 26.3333 31.1994C27.3555 32.0883 28.3889 33.1994 29.4333 34.5327C30.4778 35.8661 31.3111 37.1105 31.9333 38.2661ZM36.5333 53.4661C38.6222 52.7105 40.7 51.7105 42.7666 50.4661C44.8333 49.2216 46.7 47.5994 48.3666 45.5994C50.0333 43.5994 51.4333 41.1439 52.5666 38.2327C53.7 35.3216 54.3778 31.8661 54.6 27.8661C49.8889 28.6216 45.7333 30.2994 42.1333 32.8994C38.5333 35.4994 35.8889 38.7105 34.2 42.5327C34.7333 44.2216 35.2 45.9216 35.6 47.6327C36 49.3439 36.3111 51.2883 36.5333 53.4661Z" fill="#F75603"/>
</g>
</svg>
