<svg width="64" height="64" viewBox="0 0 64 64" fill="none" xmlns="http://www.w3.org/2000/svg">
<mask id="mask0_222_554" style="mask-type:alpha" maskUnits="userSpaceOnUse" x="0" y="0" width="64" height="64">
<rect width="64" height="64" fill="#D9D9D9"/>
</mask>
<g mask="url(#mask0_222_554)">
<path d="M13.3333 56C11.8667 56 10.6111 55.4778 9.56667 54.4333C8.52222 53.3889 8 52.1333 8 50.6667V14.7333C8 13.0889 8.76667 11.9556 10.3 11.3333C11.8333 10.7111 13.2 11 14.4 12.2L17.4 15.2L14.6 18L16.4 19.8L19.2 17L27 24.8L24.2 27.6L26 29.4L28.8 26.6L36.6667 34.4667L33.8667 37.2667L35.6667 39.0667L38.4667 36.2667L46.2667 44.0667L43.4667 46.8667L45.2667 48.6667L48.0667 45.8667L51.0667 48.8667C52.4 50.2 52.7333 51.7222 52.0667 53.4333C51.4 55.1445 50.1778 56 48.4 56H13.3333ZM13.3333 50.6667H44.2L13.3333 19.8V50.6667Z" fill="#F75603"/>
</g>
</svg>
