<svg width="64" height="64" viewBox="0 0 64 64" fill="none" xmlns="http://www.w3.org/2000/svg">
<mask id="mask0_806_34" style="mask-type:alpha" maskUnits="userSpaceOnUse" x="0" y="0" width="64" height="64">
<rect width="64" height="64" fill="#D9D9D9"/>
</mask>
<g mask="url(#mask0_806_34)">
<path d="M36 58.6002C31.0222 58.6002 26.8889 56.8557 23.6 53.3668C20.3111 49.8779 18.6666 45.7113 18.6666 40.8668V38.5335C14.8889 38.0446 11.7222 36.3621 9.16665 33.4861C6.61109 30.6101 5.33331 27.2259 5.33331 23.3335V8.00016H13.3333V5.3335H17.3333V14.6668H13.3333V12.0002H9.33331V23.312C9.33331 26.4819 10.4333 29.1668 12.6333 31.3668C14.8333 33.5668 17.5111 34.6668 20.6666 34.6668C23.8222 34.6668 26.5 33.5668 28.7 31.3668C30.9 29.1668 32 26.4819 32 23.312V12.0002H28V14.6668H24V5.3335H28V8.00016H36V23.3335C36 27.2259 34.7222 30.6101 32.1666 33.4861C29.6111 36.3621 26.4444 38.0446 22.6666 38.5335V40.8668C22.6666 44.6446 23.9222 47.8779 26.4333 50.5668C28.9444 53.2557 32.1333 54.6002 36 54.6002C39.6 54.6002 42.7222 53.2635 45.3666 50.59C48.0111 47.9166 49.3333 44.6703 49.3333 40.8512V35.7335C47.7778 35.2891 46.5 34.4224 45.5 33.1335C44.5 31.8446 44 30.3557 44 28.6668C44 26.6298 44.7137 24.8983 46.1412 23.4724C47.5686 22.0465 49.3019 21.3335 51.3412 21.3335C53.3804 21.3335 55.1111 22.0465 56.5333 23.4724C57.9555 24.8983 58.6666 26.6298 58.6666 28.6668C58.6666 30.3557 58.1666 31.8446 57.1666 33.1335C56.1666 34.4224 54.8889 35.2891 53.3333 35.7335V40.8668C53.3333 45.8002 51.6333 49.989 48.2333 53.4335C44.8333 56.8779 40.7555 58.6002 36 58.6002ZM51.3216 32.0002C52.2628 32.0002 53.0555 31.6818 53.7 31.0452C54.3444 30.4085 54.6666 29.6196 54.6666 28.6785C54.6666 27.7374 54.3483 26.9446 53.7116 26.3002C53.075 25.6557 52.2861 25.3335 51.345 25.3335C50.4039 25.3335 49.6111 25.6518 48.9666 26.2885C48.3222 26.9251 48 27.714 48 28.6552C48 29.5963 48.3183 30.389 48.955 31.0335C49.5916 31.6779 50.3805 32.0002 51.3216 32.0002Z" fill="#F75603"/>
</g>
</svg>
