<svg width="84" height="84" viewBox="0 0 84 84" fill="none" xmlns="http://www.w3.org/2000/svg">
<g id="expand_circle_right">
<mask id="mask0_297_235" style="mask-type:alpha" maskUnits="userSpaceOnUse" x="0" y="0" width="84" height="84">
<rect id="Bounding box" width="84" height="84" transform="matrix(-1 0 0 1 84 0)" fill="#D9D9D9"/>
</mask>
<g mask="url(#mask0_297_235)">
<path id="expand_circle_right_2" d="M37.1472 42L47.9097 52.7625L45.5 55.2597L32.2403 42L45.5 28.7403L47.9097 31.2375L37.1472 42ZM41.9883 73.5C46.3442 73.5 50.4395 72.6734 54.2741 71.0203C58.1088 69.3672 61.4445 67.1236 64.2811 64.2897C67.1177 61.4557 69.3633 58.1232 71.018 54.2922C72.6727 50.4611 73.5 46.3676 73.5 42.0117C73.5 37.6558 72.6734 33.5605 71.0203 29.7259C69.3672 25.8912 67.1236 22.5555 64.2897 19.7189C61.4557 16.8823 58.1232 14.6367 54.2922 12.982C50.4611 11.3273 46.3676 10.5 42.0117 10.5C37.6558 10.5 33.5605 11.3266 29.7258 12.9797C25.8912 14.6328 22.5555 16.8764 19.7189 19.7103C16.8823 22.5443 14.6367 25.8768 12.982 29.7078C11.3273 33.5389 10.5 37.6324 10.5 41.9883C10.5 46.3442 11.3266 50.4395 12.9797 54.2742C14.6328 58.1088 16.8764 61.4445 19.7103 64.2811C22.5443 67.1177 25.8768 69.3633 29.7078 71.018C33.5389 72.6727 37.6324 73.5 41.9883 73.5ZM42 70C34.1833 70 27.5625 67.2875 22.1375 61.8625C16.7125 56.4375 14 49.8167 14 42C14 34.1833 16.7125 27.5625 22.1375 22.1375C27.5625 16.7125 34.1833 14 42 14C49.8167 14 56.4375 16.7125 61.8625 22.1375C67.2875 27.5625 70 34.1833 70 42C70 49.8167 67.2875 56.4375 61.8625 61.8625C56.4375 67.2875 49.8167 70 42 70Z" fill="#F75603"/>
</g>
</g>
</svg>
