<svg width="84" height="84" viewBox="0 0 84 84" fill="none" xmlns="http://www.w3.org/2000/svg">
<g id="expand_circle_right">
<mask id="mask0_297_232" style="mask-type:alpha" maskUnits="userSpaceOnUse" x="0" y="0" width="84" height="84">
<rect id="Bounding box" width="84" height="84" fill="#D9D9D9"/>
</mask>
<g mask="url(#mask0_297_232)">
<path id="expand_circle_right_2" d="M46.8528 42L36.0903 52.7625L38.5 55.2597L51.7597 42L38.5 28.7403L36.0903 31.2375L46.8528 42ZM42.0117 73.5C37.6558 73.5 33.5605 72.6734 29.7259 71.0203C25.8912 69.3672 22.5555 67.1236 19.7189 64.2897C16.8823 61.4557 14.6367 58.1232 12.982 54.2922C11.3273 50.4611 10.5 46.3676 10.5 42.0117C10.5 37.6558 11.3266 33.5605 12.9797 29.7259C14.6328 25.8912 16.8764 22.5555 19.7103 19.7189C22.5443 16.8823 25.8768 14.6367 29.7078 12.982C33.5389 11.3273 37.6324 10.5 41.9883 10.5C46.3442 10.5 50.4395 11.3266 54.2742 12.9797C58.1088 14.6328 61.4445 16.8764 64.2811 19.7103C67.1177 22.5443 69.3633 25.8768 71.018 29.7078C72.6727 33.5389 73.5 37.6324 73.5 41.9883C73.5 46.3442 72.6734 50.4395 71.0203 54.2742C69.3672 58.1088 67.1236 61.4445 64.2897 64.2811C61.4557 67.1177 58.1232 69.3633 54.2922 71.018C50.4611 72.6727 46.3676 73.5 42.0117 73.5ZM42 70C49.8167 70 56.4375 67.2875 61.8625 61.8625C67.2875 56.4375 70 49.8167 70 42C70 34.1833 67.2875 27.5625 61.8625 22.1375C56.4375 16.7125 49.8167 14 42 14C34.1833 14 27.5625 16.7125 22.1375 22.1375C16.7125 27.5625 14 34.1833 14 42C14 49.8167 16.7125 56.4375 22.1375 61.8625C27.5625 67.2875 34.1833 70 42 70Z" fill="#F75603"/>
</g>
</g>
</svg>
